<mxfile host="app.diagrams.net" modified="2024-06-03T12:09:46.673Z" agent="Mozilla/5.0 (X11; Ubuntu; Linux x86_64; rv:109.0) Gecko/20100101 Firefox/118.0" version="24.4.6" etag="FyMYxoYSrEt9RS2f5ZqP" type="github">
  <diagram name="Page-1" id="W6qxsDa8kERVrcYiyTdX">
    <mxGraphModel>
      <root>
        <mxCell id="0" />
        <mxCell id="1" parent="0" />
      </root>
    </mxGraphModel>
  </diagram>
</mxfile>
